<svg width="17" height="17" viewBox="0 0 17 17" fill="none" xmlns="http://www.w3.org/2000/svg">
<path d="M9.61616 6.61132C9.26229 6.75789 8.88302 6.83333 8.5 6.83333C7.72645 6.83333 6.98459 6.52604 6.43761 5.97906C5.89062 5.43208 5.58333 4.69021 5.58333 3.91667C5.58333 3.14312 5.89062 2.40125 6.43761 1.85427C6.98459 1.30729 7.72645 1 8.5 1C8.88302 1 9.26229 1.07544 9.61616 1.22202C9.97003 1.36859 10.2916 1.58343 10.5624 1.85427C10.8332 2.12511 11.0481 2.44664 11.1946 2.80051C11.3412 3.15437 11.4167 3.53364 11.4167 3.91667C11.4167 4.29969 11.3412 4.67896 11.1946 5.03283C11.0481 5.38669 10.8332 5.70822 10.5624 5.97906C10.2916 6.2499 9.97003 6.46474 9.61616 6.61132Z" stroke="black" stroke-width="2" stroke-linecap="round" stroke-linejoin="round"/>
<path d="M1 16V15.5C1 13.6333 1 12.7 1.36333 11.9867C1.68291 11.3595 2.19282 10.8496 2.82 10.53C3.53333 10.1667 4.46667 10.1667 6.33333 10.1667H10.6667C12.5333 10.1667 13.4667 10.1667 14.18 10.53C14.8072 10.8496 15.3171 11.3595 15.6367 11.9867C16 12.7 16 13.6333 16 15.5V16H1Z" stroke="black" stroke-width="2" stroke-linecap="round" stroke-linejoin="round"/>
</svg>
