<svg width="20" height="15" viewBox="0 0 20 15" fill="none" xmlns="http://www.w3.org/2000/svg">
<path fill-rule="evenodd" clip-rule="evenodd" d="M2.93677 0.882353C2.93677 0.648338 3.04308 0.423908 3.23231 0.258435C3.42154 0.0929619 3.67819 0 3.9458 0H16.0542C16.3218 0 16.5785 0.0929619 16.7677 0.258435C16.9569 0.423908 17.0632 0.648338 17.0632 0.882353C17.0632 1.11637 16.9569 1.3408 16.7677 1.50627C16.5785 1.67174 16.3218 1.76471 16.0542 1.76471H3.9458C3.67819 1.76471 3.42154 1.67174 3.23231 1.50627C3.04308 1.3408 2.93677 1.11637 2.93677 0.882353ZM0.0206611 4.18853C-0.0155477 3.99887 -0.00406284 3.80459 0.0543164 3.6192C0.112696 3.43382 0.216567 3.26178 0.358704 3.11507C0.50084 2.96835 0.677827 2.85048 0.87735 2.76966C1.07687 2.68884 1.29414 2.647 1.51403 2.64706H18.486C18.7059 2.647 18.9231 2.68884 19.1227 2.76966C19.3222 2.85048 19.4992 2.96835 19.6413 3.11507C19.7834 3.26178 19.8873 3.43382 19.9457 3.6192C20.0041 3.80459 20.0155 3.99887 19.9793 4.18853L18.1994 13.5256C18.1208 13.9376 17.8776 14.3119 17.5131 14.5819C17.1485 14.8519 16.6863 15.0001 16.2086 15H3.79142C3.3137 15.0001 2.85146 14.8519 2.48692 14.5819C2.12238 14.3119 1.87918 13.9376 1.8006 13.5256L0.0206611 4.18853Z" fill="black"/>
</svg>
